Coordinates
version=1
nRows=54
nColumns=12
inDegrees=yes

Units are S.I. units (second, meters, Newtons, ...)
Angles are in degrees

endheader
time	SC_y	SC_z	SC_x	AC_y	AC_z	AC_x	GH_y	GH_z	GH_yy	EL_x	PS_y
       0.0              -45.55          19.47           34.2          56.26          -17.9           9.82         -71.57           49.0         -52.93          65.71          104.6
   0.02395              -45.55          19.46          34.21          56.25          -17.9          9.821         -71.56           49.0         -52.91          65.71          104.5
    0.0479              -45.55          19.46          34.21          56.25          -17.9          9.822         -71.55           49.0         -52.89          65.71          104.5
   0.07186              -45.55          19.46          34.22          56.25          -17.9          9.822         -71.53           49.0         -52.87          65.71          104.5
   0.09581              -45.55          19.46          34.22          56.25          -17.9          9.823         -71.52           49.0         -52.85          65.71          104.5
    0.1198              -45.55          19.45          34.23          56.25          -17.9          9.824          -71.5           49.0         -52.83          65.71          104.5
    0.1437              -45.55          19.45          34.24          56.25         -17.89          9.824         -71.49           49.0          -52.8          65.71          104.5
    0.1677              -45.55          19.45          34.24          56.25         -17.89          9.825         -71.47           49.0         -52.78          65.71          104.5
    0.1916              -45.56          19.44          34.25          56.25         -17.89          9.826         -71.45           49.0         -52.75          65.71          104.4
    0.2156              -45.56          19.44          34.26          56.25         -17.89          9.827         -71.43           49.0         -52.72          65.71          104.4
    0.2395              -45.56          19.44          34.27          56.25         -17.89          9.828         -71.41           49.0         -52.69           65.7          104.4
    0.2635              -45.56          19.43          34.28          56.25         -17.88          9.829         -71.39           49.0         -52.65           65.7          104.4
    0.2874              -45.56          19.43          34.29          56.24         -17.88          9.831         -71.37           49.0         -52.61           65.7          104.3
    0.3114              -45.56          19.42           34.3          56.24         -17.88          9.832         -71.34           49.0         -52.57           65.7          104.3
    0.3353              -45.56          19.42          34.31          56.24         -17.88          9.833         -71.31           49.0         -52.53           65.7          104.3
    0.3593              -45.56          19.41          34.32          56.24         -17.87          9.835         -71.28           49.0         -52.48           65.7          104.3
    0.3832              -45.57          19.41          34.34          56.24         -17.87          9.837         -71.25           49.0         -52.43           65.7          104.2
    0.4072              -45.57           19.4          34.35          56.24         -17.86          9.838         -71.21           49.0         -52.37          65.69          104.2
    0.4311              -45.57          19.39          34.37          56.23         -17.86           9.84         -71.17           49.0         -52.31          65.69          104.1
    0.4551              -45.57          19.38          34.39          56.23         -17.86          9.843         -71.13           49.0         -52.25          65.69          104.1
     0.479              -45.57          19.38          34.41          56.23         -17.85          9.845         -71.08          48.99         -52.17          65.69          104.1
     0.503              -45.58          19.37          34.43          56.23         -17.84          9.848         -71.02          48.99         -52.09          65.69          104.0
    0.5269              -45.58          19.36          34.45          56.22         -17.84          9.851         -70.97          48.99          -52.0          65.68          103.9
    0.5509              -45.58          19.34          34.48          56.22         -17.83          9.854          -70.9          48.99          -51.9          65.68          103.9
    0.5748              -45.59          19.33          34.51          56.22         -17.82          9.857         -70.83          48.99         -51.79          65.68          103.8
    0.5988              -45.59          19.32          34.54          56.21         -17.82          9.862         -70.75          48.99         -51.67          65.67          103.7
    0.6228              -45.59           19.3          34.58          56.21         -17.81          9.866         -70.66          48.99         -51.53          65.67          103.6
    0.6467               -45.6          19.28          34.62           56.2         -17.79          9.871         -70.56          48.99         -51.37          65.66          103.5
    0.6707              -45.61          19.26          34.67           56.2         -17.78          9.877         -70.44          48.99          -51.2          65.66          103.4
    0.6946              -45.61          19.24          34.73          56.19         -17.77          9.883         -70.31          48.99          -51.0          65.65          103.3
    0.7186              -45.62          19.21          34.79          56.18         -17.75          9.891         -70.16          48.98         -50.77          65.64          103.1
    0.7425              -45.63          19.18          34.86          56.17         -17.73          9.899         -69.99          48.98         -50.51          65.63          102.9
    0.7665              -45.64          19.14          34.94          56.16         -17.71          9.909          -69.8          48.98         -50.21          65.62          102.7
    0.7904              -45.65           19.1          35.04          56.15         -17.69          9.921         -69.57          48.98         -49.86          65.61          102.5
    0.8144              -45.66          19.05          35.15          56.14         -17.66          9.934          -69.3          48.97         -49.45           65.6          102.2
    0.8383              -45.68          18.99          35.28          56.12         -17.63           9.95         -68.99          48.97         -48.97          65.58          101.9
    0.8623               -45.7          18.93          35.43           56.1         -17.59          9.969         -68.61          48.97         -48.39          65.56          101.5
    0.8862              -45.72          18.84          35.62          56.08         -17.54          9.991         -68.16          48.96         -47.71          65.54          101.0
    0.9102              -45.75          18.74          35.85          56.05         -17.48          10.02         -67.62          48.95         -46.87          65.51          100.5
    0.9341              -45.78          18.62          36.12          56.01         -17.41          10.05         -66.96          48.95         -45.86          65.48           99.8
    0.9581              -45.82          18.47          36.46          55.97         -17.32          10.09         -66.14          48.94          -44.6          65.44          98.96
     0.982              -45.87          18.29          36.89          55.92         -17.21          10.14         -65.12          48.92         -43.04          65.39           97.9
     1.006              -45.93          18.05          37.42          55.85         -17.08          10.21         -63.83          48.91         -41.07          65.32          96.58
      1.03              -46.01          17.76           38.1          55.76          -16.9          10.29          -62.2          48.89         -38.56          65.24          94.89
     1.054              -46.12          17.37          38.97          55.65         -16.68          10.39          -60.1          48.87         -35.35          65.13          92.73
     1.078              -46.25          16.88          40.09          55.51         -16.39          10.53         -57.42          48.83         -31.24           65.0          89.96
     1.102              -46.42          16.26          41.52          55.33         -16.02           10.7         -53.99          48.79         -25.98          64.82          86.42
     1.126              -46.64          15.47          43.31          55.11         -15.56          10.92         -49.67          48.74         -19.37           64.6          81.97
      1.15               -46.9          14.51           45.5          54.83          -15.0          11.18         -44.42          48.68         -11.32          64.34          76.55
     1.174               -47.2           13.4          48.04          54.51         -14.35          11.49         -38.32          48.61         -1.981          64.03          70.26
     1.198              -47.53           12.2          50.78          54.16         -13.64          11.82         -31.72          48.53          8.128           63.7          63.46
     1.222              -47.85          10.99          53.53          53.82         -12.94          12.15         -25.13          48.45          18.24          63.36          56.65
     1.246              -48.16          9.881          56.06           53.5         -12.29          12.45         -19.03          48.38          27.57          63.05          50.36
     1.269              -48.42          8.922          58.25          53.22         -11.73          12.71         -13.78          48.32          35.63          62.79          44.94
